<svg width="118" height="142" viewBox="0 0 118 142" fill="none" xmlns="http://www.w3.org/2000/svg">
<path d="M118 0H0L0.476329 116.701C0.49156 120.432 1.89726 124.024 4.41889 126.775L6 128.5L9.72113 130.981C12.1851 132.623 15.0803 133.5 18.0416 133.5H40.2889C44.9909 133.5 49.5877 134.892 53.5 137.5L58.8916 141.094C59.2539 141.336 59.7309 141.315 60.071 141.043L61.2826 140.074C66.602 135.818 73.2113 133.5 80.0234 133.5H100.398C103.706 133.5 106.922 132.406 109.544 130.389L112 128.5L113.607 126.893C116.42 124.08 118 120.265 118 116.287V0Z" fill="#F64027"/>
<path d="M50 28.5H32H31.5V107.5H50.5V88.5L57 80L72.5 108H92L68 62L89 28.5H69.5L54 55.5H60L42 83L48 65H44.5L50 28.5Z" fill="white" stroke="white"/>
</svg>
