<svg width="106" height="126" viewBox="0 0 106 126" fill="none" xmlns="http://www.w3.org/2000/svg">
<path d="M105.074 0H0L0.421558 103.282C0.43679 107.014 1.84248 110.606 4.36412 113.356L5.34276 114.424L8.24233 116.357C10.7063 118 13.6015 118.876 16.5628 118.876H35.8756C40.0626 118.876 44.1558 120.116 47.6396 122.438L52.3739 125.594C52.7363 125.836 53.2133 125.815 53.5533 125.543L53.6695 125.45C58.9889 121.195 65.5982 118.876 72.4104 118.876H88.8416C92.1498 118.876 95.3652 117.783 97.9873 115.766L99.7314 114.424L100.681 113.475C103.494 110.662 105.074 106.846 105.074 102.868V0Z" fill="#E04142"/>
<path d="M44.5229 25.3781H28.4947H28.0494V95.7244H44.9682V78.8057L50.7562 71.2368L64.5583 96.1696H81.9222L60.5512 55.2085L79.2509 25.3781H61.8869L48.0848 49.4205H53.4275L37.3993 73.9081L42.742 57.8799H39.6254L44.5229 25.3781Z" fill="white" stroke="white"/>
</svg>
